<svg xmlns="http://www.w3.org/2000/svg" xmlns:xlink="http://www.w3.org/1999/xlink" viewBox="0 0 122.47 26.12"><defs><style>.cls-1{fill:#fff;}.cls-2{fill:url(#linear-gradient);}.cls-3{fill:url(#linear-gradient-2);}.cls-4{fill:url(#linear-gradient-3);}.cls-5{fill:url(#linear-gradient-4);}</style><linearGradient id="linear-gradient" x1="49.08" y1="5.64" x2="74.96" y2="5.64" gradientUnits="userSpaceOnUse"><stop offset="0" stop-color="#00487e"/><stop offset="1" stop-color="#04a1db"/></linearGradient><linearGradient id="linear-gradient-2" x1="49.08" y1="16.16" x2="74.96" y2="16.16" xlink:href="#linear-gradient"/><linearGradient id="linear-gradient-3" x1="49.08" y1="18.71" x2="74.96" y2="18.71" xlink:href="#linear-gradient"/><linearGradient id="linear-gradient-4" x1="49.08" y1="18.71" x2="74.96" y2="18.71" xlink:href="#linear-gradient"/></defs><title>logo-bcolor</title><g id="Layer_2" data-name="Layer 2"><g id="Layer_1-2" data-name="Layer 1"><path class="cls-1" d="M10.24,9.18V21.82H8.53V16.07H1.71v5.75H0V9.18H1.71v5.64H8.53V9.18Z"/><path class="cls-1" d="M25.69,20.43v1.39H17.89V9.18h7.79v1.39H19.6v4.2h4.92v1.34H19.6v4.32Z"/><path class="cls-1" d="M39.66,20.38v1.44H32.49V9.18h1.7V20.38Z"/><path class="cls-1" d="M92.63,19.16a.32.32,0,0,1,.25.12l.68.73a5.41,5.41,0,0,1-1.88,1.4,6.44,6.44,0,0,1-2.68.5,6.26,6.26,0,0,1-2.47-.47,5.43,5.43,0,0,1-1.9-1.32,6,6,0,0,1-1.22-2A7.64,7.64,0,0,1,83,15.45a7.36,7.36,0,0,1,.45-2.62,6,6,0,0,1,1.27-2,5.66,5.66,0,0,1,2-1.33A6.5,6.5,0,0,1,89.16,9a6.13,6.13,0,0,1,2.38.43,6,6,0,0,1,1.82,1.17l-.56.79a.46.46,0,0,1-.14.15.39.39,0,0,1-.22.06.7.7,0,0,1-.39-.17,5.91,5.91,0,0,0-.6-.38,4.46,4.46,0,0,0-2.29-.56,4.59,4.59,0,0,0-1.79.34,3.9,3.9,0,0,0-1.4,1,4.54,4.54,0,0,0-.91,1.57,6.26,6.26,0,0,0-.33,2.09,6.1,6.1,0,0,0,.34,2.11A4.66,4.66,0,0,0,86,19.13a3.92,3.92,0,0,0,1.39,1,4.41,4.41,0,0,0,1.72.33,7.16,7.16,0,0,0,1-.07,4.17,4.17,0,0,0,.84-.21,3.49,3.49,0,0,0,.71-.36,5,5,0,0,0,.66-.52A.45.45,0,0,1,92.63,19.16Z"/><path class="cls-1" d="M101.67,21.77H100V9.12h1.71Z"/><path class="cls-1" d="M122.47,9.12V21.77H121V12.48c0-.12,0-.26,0-.4s0-.29,0-.43l-4.34,7.91a.66.66,0,0,1-.62.4h-.25a.66.66,0,0,1-.62-.4l-4.43-7.94a7.77,7.77,0,0,1,.05.86v9.29h-1.5V9.12h1.26a1.1,1.1,0,0,1,.35,0,.51.51,0,0,1,.24.25l4.37,7.78.21.44c.07.15.13.31.19.47.06-.16.12-.32.19-.47a4.59,4.59,0,0,1,.21-.45l4.29-7.77a.47.47,0,0,1,.23-.25,1.14,1.14,0,0,1,.36,0Z"/><path class="cls-2" d="M62.4.09l6.21,3.59a.69.69,0,0,1,.34.59V9.88l-2.2-1.31-4.69,2.71L57.36,8.58l-2.2,1.31V4.28a.69.69,0,0,1,.34-.59L61.71.09A.69.69,0,0,1,62.4.09Z"/><polygon class="cls-3" points="68.95 10.81 66.75 9.53 62.05 12.25 57.36 9.53 55.16 10.81 55.16 13.36 59.82 16.08 59.82 21.5 62.05 22.78 64.26 21.5 64.26 16.08 68.95 13.36 68.95 10.81"/><path class="cls-4" d="M54.33,11.29v2.55L59,16.56V22l2.23,1.28L56.39,26a.69.69,0,0,1-.68,0l-6.24-3.57a.69.69,0,0,1-.35-.6V14.69a.69.69,0,0,1,.34-.59Z"/><path class="cls-5" d="M62.88,23.26,65.09,22V16.56l4.69-2.68V11.29l4.83,2.8a.69.69,0,0,1,.34.59v7.19a.69.69,0,0,1-.34.59L68.4,26a.69.69,0,0,1-.68,0Z"/></g></g></svg>